<?xml version="1.0" standalone="yes"?>

<svg version="1.1" viewBox="0.0 0.0 1152.0 864.0" fill="none" stroke="none" stroke-linecap="square" stroke-miterlimit="10" xmlns="http://www.w3.org/2000/svg" xmlns:xlink="http://www.w3.org/1999/xlink"><path d="M480 392L588 280L696 392L588 504Z" fill-rule="nonzero" fill="#cfe2f3" stroke="#073763" stroke-width="2.0" stroke-linejoin="round" stroke-linecap="butt"></path><path d="M480 392L372 392" fill-rule="evenodd" stroke="#073763" stroke-width="2.0" stroke-linejoin="round" stroke-linecap="butt"></path><path d="M372 389L363 392L372 395Z" fill-rule="evenodd" fill="#073763" stroke="#073763" stroke-width="2.0" stroke-linecap="butt"></path><path d="M176 329L176 329C176 311 217 296 268 296C319 296 360 311 360 329L360 463C360 481 319 496 268 496C217 496 176 481 176 463Z" fill-rule="nonzero" fill="#cfe2f3"></path><path d="M360 329L360 329C360 348 319 363 268 363C217 363 176 348 176 329" fill-rule="nonzero" stroke="#073763" stroke-width="2.0" stroke-linejoin="round" stroke-linecap="butt"></path><path d="M176 329L176 329C176 311 217 296 268 296C319 296 360 311 360 329L360 463C360 481 319 496 268 496C217 496 176 481 176 463Z" fill-rule="nonzero" stroke="#073763" stroke-width="2.0" stroke-linejoin="round" stroke-linecap="butt"></path><path d="M882 262L882 262C923 219 982 203 1014 226L1014 226C1029 236 1036 255 1033 277C1030 300 1017 324 998 344L998 344C957 387 898 403 866 381L866 381C834 358 841 305 882 262Z" fill-rule="nonzero" fill="#cfe2f3" stroke="#073763" stroke-width="2.0" stroke-linejoin="round" stroke-linecap="butt"></path><path d="M842 309L842 309C883 266 942 250 974 273L974 273C990 284 997 302 993 324C990 347 978 371 958 391L958 391C917 434 858 451 826 428L826 428C794 405 801 352 842 309Z" fill-rule="nonzero" fill="#cfe2f3" stroke="#073763" stroke-width="2.0" stroke-linejoin="round" stroke-linecap="butt"></path><path d="M910 321L910 321C951 278 1011 262 1043 285L1043 285C1058 296 1065 314 1062 337C1059 359 1046 383 1026 403L1026 403C985 446 926 463 894 440L894 440C862 417 869 364 910 321Z" fill-rule="nonzero" fill="#cfe2f3" stroke="#073763" stroke-width="2.0" stroke-linejoin="round" stroke-linecap="butt"></path><path d="M827 389L827 389C868 347 927 330 959 353L959 353C974 364 981 382 978 405C975 427 962 451 942 472L942 472C901 514 842 531 810 508L810 508C778 485 786 432 827 389Z" fill-rule="nonzero" fill="#cfe2f3" stroke="#073763" stroke-width="2.0" stroke-linejoin="round" stroke-linecap="butt"></path><path d="M946 374L946 374C987 331 1046 314 1078 337L1078 337C1093 348 1100 367 1097 389C1094 411 1081 435 1062 456L1062 456C1021 499 962 515 930 492L930 492C898 470 905 416 946 374Z" fill-rule="nonzero" fill="#cfe2f3" stroke="#073763" stroke-width="2.0" stroke-linejoin="round" stroke-linecap="butt"></path><path d="M810 462L810 462C851 419 910 402 942 425L942 425C958 436 965 455 961 477C958 499 946 523 926 544L926 544C885 587 826 603 794 580L794 580C762 558 769 505 810 462Z" fill-rule="nonzero" fill="#cfe2f3" stroke="#073763" stroke-width="2.0" stroke-linejoin="round" stroke-linecap="butt"></path><path d="M930 470L930 470C971 427 1030 411 1062 433L1062 433C1078 444 1085 463 1082 485C1079 507 1066 531 1046 552L1046 552C1005 595 946 611 914 588L914 588C882 566 889 513 930 470Z" fill-rule="nonzero" fill="#cfe2f3" stroke="#073763" stroke-width="2.0" stroke-linejoin="round" stroke-linecap="butt"></path><path d="M696 392L798 334" fill-rule="evenodd" stroke="#073763" stroke-width="2.0" stroke-linejoin="round" stroke-linecap="butt"></path><path d="M799 337L805 329L796 331Z" fill-rule="evenodd" fill="#073763" stroke="#073763" stroke-width="2.0" stroke-linecap="butt"></path><path d="M696 392L772 385" fill-rule="evenodd" stroke="#073763" stroke-width="2.0" stroke-linejoin="round" stroke-linecap="butt"></path><path d="M772 388L781 384L772 382Z" fill-rule="evenodd" fill="#073763" stroke="#073763" stroke-width="2.0" stroke-linecap="butt"></path><path d="M696 392L765 427" fill-rule="evenodd" stroke="#073763" stroke-width="2.0" stroke-linejoin="round" stroke-linecap="butt"></path><path d="M764 430L773 431L767 424Z" fill-rule="evenodd" fill="#073763" stroke="#073763" stroke-width="2.0" stroke-linecap="butt"></path><path d="M696 392L753 470" fill-rule="evenodd" stroke="#073763" stroke-width="2.0" stroke-linejoin="round" stroke-linecap="butt"></path><path d="M750 472L758 478L756 468Z" fill-rule="evenodd" fill="#073763" stroke="#073763" stroke-width="2.0" stroke-linecap="butt"></path><path d="M493 799L442 748L467 672L538 662L589 712L564 788Z" fill-rule="nonzero" fill="#cfe2f3" stroke="#073763" stroke-width="2.0" stroke-linejoin="round" stroke-linecap="butt"></path><path d="M513 788L462 738L487 662L558 651L609 702L584 778Z" fill-rule="nonzero" fill="#cfe2f3" stroke="#073763" stroke-width="2.0" stroke-linejoin="round" stroke-linecap="butt"></path><path d="M533 778L482 728L507 652L578 641L629 691L604 767Z" fill-rule="nonzero" fill="#cfe2f3" stroke="#073763" stroke-width="2.0" stroke-linejoin="round" stroke-linecap="butt"></path><path d="M554 768L503 717L527 641L598 631L649 681L624 757Z" fill-rule="nonzero" fill="#cfe2f3" stroke="#073763" stroke-width="2.0" stroke-linejoin="round" stroke-linecap="butt"></path><path d="M574 757L523 707L548 631L618 621L669 671L644 747Z" fill-rule="nonzero" fill="#cfe2f3" stroke="#073763" stroke-width="2.0" stroke-linejoin="round" stroke-linecap="butt"></path><path d="M594 747L543 697L568 621L638 610L689 661L665 737Z" fill-rule="nonzero" fill="#cfe2f3" stroke="#073763" stroke-width="2.0" stroke-linejoin="round" stroke-linecap="butt"></path><path d="M614 737L563 687L588 611L659 600L710 650L685 726Z" fill-rule="nonzero" fill="#cfe2f3" stroke="#073763" stroke-width="2.0" stroke-linejoin="round" stroke-linecap="butt"></path><path d="M634 727L583 676L608 600L679 590L730 640L705 716Z" fill-rule="nonzero" fill="#cfe2f3" stroke="#073763" stroke-width="2.0" stroke-linejoin="round" stroke-linecap="butt"></path><path d="M654 716L603 666L628 590L699 579L750 630L725 706Z" fill-rule="nonzero" fill="#cfe2f3" stroke="#073763" stroke-width="2.0" stroke-linejoin="round" stroke-linecap="butt"></path><path d="M584 504L563 573" fill-rule="evenodd" stroke="#073763" stroke-width="2.0" stroke-linejoin="round" stroke-linecap="butt"></path><path d="M560 572L561 581L567 573Z" fill-rule="evenodd" fill="#073763" stroke="#073763" stroke-width="2.0" stroke-linecap="butt"></path><path d="M592 504L612 565" fill-rule="evenodd" stroke="#073763" stroke-width="2.0" stroke-linejoin="round" stroke-linecap="butt"></path><path d="M609 566L615 573L615 564Z" fill-rule="evenodd" fill="#073763" stroke="#073763" stroke-width="2.0" stroke-linecap="butt"></path><path d="M600 504L646 537" fill-rule="evenodd" stroke="#073763" stroke-width="2.0" stroke-linejoin="round" stroke-linecap="butt"></path><path d="M644 540L654 542L648 534Z" fill-rule="evenodd" fill="#073763" stroke="#073763" stroke-width="2.0" stroke-linecap="butt"></path><path d="M241 422L241 409L246 409Q247 409 248 410Q249 410 250 410Q251 411 252 413Q252 414 252 416Q252 417 252 418Q251 419 251 420Q250 421 250 421Q249 422 248 422Q247 422 246 422L241 422ZM243 421L246 421Q247 421 248 420Q249 420 249 420Q250 419 250 418Q250 417 250 416Q250 414 250 413Q249 412 248 411Q247 411 246 411L243 411L243 421ZM254 418L255 418Q256 419 256 420Q256 420 257 421Q258 421 259 421Q260 421 261 421Q262 420 262 420Q262 419 262 419Q262 418 262 418Q262 417 261 417Q260 417 259 416Q257 416 256 415Q255 415 255 414Q254 414 254 413Q254 412 255 411Q255 410 256 410Q258 409 259 409Q260 409 261 410Q262 410 263 411Q264 412 264 413L262 413Q262 412 261 411Q260 411 259 411Q257 411 257 411Q256 412 256 413Q256 413 256 414Q257 414 259 415Q261 415 262 415Q263 416 264 417Q264 418 264 419Q264 420 263 421Q263 421 262 422Q261 422 259 422Q258 422 256 422Q255 421 255 420Q254 419 254 418ZM270 421L270 422Q269 422 269 422Q268 422 267 422Q267 422 267 421Q266 421 266 420L266 414L265 414L265 413L266 413L266 411L268 410L268 413L270 413L270 414L268 414L268 420Q268 420 268 420Q268 421 268 421Q269 421 269 421Q269 421 270 421ZM271 418Q271 415 272 414Q273 413 275 413Q277 413 278 414Q279 415 279 417Q279 419 279 420Q278 421 277 422Q276 422 275 422Q273 422 272 421Q271 420 271 418ZM272 418Q272 419 273 420Q274 421 275 421Q276 421 277 420Q278 419 278 418Q278 416 277 415Q276 414 275 414Q274 414 273 415Q272 416 272 418ZM281 422L281 413L283 413L283 414Q283 413 284 413Q284 413 285 413Q285 413 286 413L286 415Q285 414 285 414Q284 414 284 415Q283 415 283 416Q283 416 283 417L283 422L281 422ZM294 419L295 419Q295 421 294 422Q293 422 291 422Q289 422 288 421Q287 420 287 418Q287 415 288 414Q289 413 291 413Q293 413 294 414Q295 415 295 418Q295 418 295 418L288 418Q288 420 289 420Q290 421 291 421Q292 421 293 421Q293 420 294 419ZM288 417L294 417Q293 416 293 415Q292 414 291 414Q290 414 289 415Q288 415 288 417Z" fill-rule="nonzero" fill="#000000"></path><path d="M557 393L557 392L562 392L562 396Q561 397 560 398Q558 398 557 398Q555 398 554 398Q552 397 551 395Q550 394 550 392Q550 390 551 388Q552 387 553 386Q555 385 557 385Q558 385 559 386Q561 386 561 387Q562 388 562 389L561 389Q560 388 560 388Q559 387 559 387Q558 387 557 387Q556 387 555 387Q554 387 554 388Q553 388 553 389Q552 390 552 392Q552 393 553 395Q553 396 555 396Q556 397 557 397Q558 397 559 396Q560 396 561 396L561 393L557 393ZM571 397Q570 398 569 398Q568 398 567 398Q566 398 565 398Q564 397 564 396Q564 395 564 395Q565 394 565 394Q566 393 566 393Q567 393 568 393Q570 393 571 392Q571 392 571 392Q571 391 570 391Q570 390 568 390Q567 390 567 390Q566 391 566 392L564 392Q565 391 565 390Q566 389 566 389Q567 389 569 389Q570 389 571 389Q571 389 572 390Q572 390 572 391Q572 391 572 392L572 394Q572 397 572 397Q572 398 573 398L571 398Q571 398 571 397ZM571 394Q570 394 568 394Q567 394 567 394Q566 395 566 395Q566 395 566 396Q566 396 566 397Q567 397 568 397Q569 397 569 397Q570 396 570 396Q571 395 571 394L571 394ZM575 402L575 389L576 389L576 390Q577 389 577 389Q578 389 579 389Q580 389 581 389Q582 390 582 391Q583 392 583 394Q583 395 582 396Q582 397 581 398Q580 398 579 398Q578 398 577 398Q577 398 576 397L576 402L575 402ZM576 394Q576 395 577 396Q578 397 579 397Q580 397 580 396Q581 395 581 393Q581 392 580 391Q580 390 579 390Q578 390 577 391Q576 392 576 394ZM590 398L590 385L594 385Q596 385 597 386Q598 386 599 386Q600 387 600 389Q601 390 601 392Q601 393 600 394Q600 395 599 396Q599 397 598 397Q598 398 597 398Q596 398 595 398L590 398ZM592 397L594 397Q596 397 596 396Q597 396 598 396Q598 395 598 394Q599 393 599 392Q599 390 598 389Q597 388 597 387Q596 387 594 387L592 387L592 397ZM609 397Q608 398 607 398Q606 398 605 398Q604 398 603 398Q602 397 602 396Q602 395 602 395Q603 394 603 394Q604 393 604 393Q605 393 606 393Q608 393 609 392Q609 392 609 392Q609 391 608 391Q608 390 606 390Q605 390 605 390Q604 391 604 392L602 392Q603 391 603 390Q604 389 605 389Q605 389 607 389Q608 389 609 389Q609 389 610 390Q610 390 610 391Q610 391 610 392L610 394Q610 397 610 397Q610 398 611 398L609 398Q609 398 609 397ZM609 394Q608 394 606 394Q605 394 605 394Q604 395 604 395Q604 395 604 396Q604 396 604 397Q605 397 606 397Q607 397 607 397Q608 396 608 396Q609 395 609 394L609 394ZM616 397L616 398Q616 398 615 398Q614 398 614 398Q613 398 613 397Q613 397 613 396L613 390L612 390L612 389L613 389L613 387L615 386L615 389L616 389L616 390L615 390L615 396Q615 396 615 396Q615 397 615 397Q615 397 615 397Q616 397 616 397ZM624 397Q623 398 622 398Q621 398 620 398Q619 398 618 398Q617 397 617 396Q617 395 617 395Q618 394 618 394Q619 393 619 393Q620 393 621 393Q623 393 624 392Q624 392 624 392Q624 391 623 391Q623 390 621 390Q620 390 620 390Q619 391 619 392L617 392Q618 391 618 390Q619 389 620 389Q620 389 622 389Q623 389 624 389Q624 389 625 390Q625 390 625 391Q625 391 625 392L625 394Q625 397 625 397Q625 398 626 398L624 398Q624 398 624 397ZM624 394Q623 394 621 394Q620 394 620 394Q619 395 619 395Q619 395 619 396Q619 396 619 397Q620 397 621 397Q622 397 622 397Q623 396 623 396Q624 395 624 394L624 394Z" fill-rule="nonzero" fill="#000000"></path><path d="M655 654L660 641L662 641L667 654L665 654L664 650L658 650L657 654L655 654ZM659 649L663 649L662 645Q661 644 661 643Q661 644 660 645L659 649ZM672 653L672 654Q671 654 671 654Q670 654 669 654Q669 654 669 653Q668 653 668 652L668 646L667 646L667 645L668 645L668 643L670 642L670 645L672 645L672 646L670 646L670 652Q670 652 670 652Q670 653 670 653Q671 653 671 653Q671 653 672 653ZM673 650Q673 647 674 646Q675 645 677 645Q679 645 680 646Q681 647 681 649Q681 651 681 652Q680 653 679 654Q678 654 677 654Q675 654 674 653Q673 652 673 650ZM674 650Q674 651 675 652Q676 653 677 653Q678 653 679 652Q680 651 680 650Q680 648 679 647Q678 646 677 646Q676 646 675 647Q674 648 674 650ZM683 654L683 645L685 645L685 646Q685 646 686 645Q687 645 687 645Q688 645 689 645Q690 646 690 646Q691 645 693 645Q694 645 695 645Q696 646 696 648L696 654L694 654L694 648Q694 647 694 647Q694 647 694 646Q693 646 693 646Q692 646 691 647Q690 647 690 649L690 654L689 654L689 648Q689 647 688 647Q688 646 687 646Q686 646 686 646Q685 647 685 647Q685 648 685 649L685 654L683 654Z" fill-rule="nonzero" fill="#000000"></path><path d="M965 502L962 489L963 489L965 498Q966 499 966 500Q966 498 967 498L969 489L971 489L973 496Q974 498 974 500Q974 499 975 498L977 489L978 489L975 502L973 502L970 492Q970 491 970 491Q970 492 970 492L967 502L965 502ZM986 499L988 499Q987 501 986 502Q985 502 984 502Q982 502 980 501Q979 500 979 498Q979 495 980 494Q982 493 983 493Q985 493 987 494Q988 495 988 498Q988 498 988 498L981 498Q981 500 982 500Q982 501 984 501Q984 501 985 501Q986 500 986 499ZM981 497L986 497Q986 496 985 495Q985 494 984 494Q982 494 982 495Q981 495 981 497ZM991 502L990 502L990 489L991 489L991 494Q992 493 994 493Q995 493 995 493Q996 493 997 494Q997 495 997 496Q998 496 998 497Q998 500 997 501Q995 502 994 502Q992 502 991 501L991 502ZM991 498Q991 499 992 500Q992 501 994 501Q995 501 995 500Q996 499 996 498Q996 496 995 495Q995 494 994 494Q993 494 992 495Q991 496 991 498Z" fill-rule="nonzero" fill="#000000"></path><path d="M821 526L818 513L819 513L821 522Q822 523 822 524Q822 522 823 522L825 513L827 513L829 520Q830 522 830 524Q830 523 831 522L833 513L834 513L831 526L829 526L826 516Q826 515 826 515Q826 516 826 516L823 526L821 526ZM842 523L844 523Q843 525 842 526Q841 526 840 526Q838 526 836 525Q835 524 835 522Q835 519 836 518Q838 517 839 517Q841 517 843 518Q844 519 844 522Q844 522 844 522L837 522Q837 524 838 524Q838 525 840 525Q840 525 841 525Q842 524 842 523ZM837 521L842 521Q842 520 841 519Q841 518 840 518Q838 518 838 519Q837 519 837 521ZM847 526L846 526L846 513L847 513L847 518Q848 517 850 517Q851 517 851 517Q852 517 853 518Q853 519 853 520Q854 520 854 521Q854 524 853 525Q851 526 850 526Q848 526 847 525L847 526ZM847 522Q847 523 848 524Q848 525 850 525Q851 525 851 524Q852 523 852 522Q852 520 851 519Q851 518 850 518Q849 518 848 519Q847 520 847 522Z" fill-rule="nonzero" fill="#000000"></path><path d="M1005 382L1002 369L1003 369L1005 378Q1006 379 1006 380Q1006 378 1007 378L1009 369L1011 369L1013 376Q1014 378 1014 380Q1014 379 1015 378L1017 369L1018 369L1015 382L1013 382L1010 372Q1010 371 1010 371Q1010 372 1010 372L1007 382L1005 382ZM1026 379L1028 379Q1027 381 1026 382Q1025 382 1024 382Q1022 382 1020 381Q1019 380 1019 378Q1019 375 1020 374Q1022 373 1023 373Q1025 373 1027 374Q1028 375 1028 378Q1028 378 1028 378L1021 378Q1021 380 1022 380Q1022 381 1024 381Q1024 381 1025 381Q1026 380 1026 379ZM1021 377L1026 377Q1026 376 1025 375Q1025 374 1024 374Q1022 374 1022 375Q1021 375 1021 377ZM1031 382L1030 382L1030 369L1031 369L1031 374Q1032 373 1034 373Q1035 373 1035 373Q1036 373 1037 374Q1037 375 1037 376Q1038 376 1038 377Q1038 380 1037 381Q1035 382 1034 382Q1032 382 1031 381L1031 382ZM1031 378Q1031 379 1032 380Q1032 381 1034 381Q1035 381 1035 380Q1036 379 1036 378Q1036 376 1035 375Q1035 374 1034 374Q1033 374 1032 375Q1031 376 1031 378Z" fill-rule="nonzero" fill="#000000"></path></svg>

